<?xml version="1.0" encoding="UTF-8" standalone="no"?>
<!-- Created with Inkscape (http://www.inkscape.org/) -->

<svg
   width="166.9922mm"
   height="79.552948mm"
   viewBox="0 0 166.9922 79.552948"
   version="1.1"
   id="svg5"
   inkscape:version="1.1 (c4e8f9ed74, 2021-05-24)"
   sodipodi:docname="tattl-full.svg"
   inkscape:export-filename="/home/avan/tattl.png"
   inkscape:export-xdpi="96"
   inkscape:export-ydpi="96"
   xmlns:inkscape="http://www.inkscape.org/namespaces/inkscape"
   xmlns:sodipodi="http://sodipodi.sourceforge.net/DTD/sodipodi-0.dtd"
   xmlns="http://www.w3.org/2000/svg"
   xmlns:svg="http://www.w3.org/2000/svg">
  <sodipodi:namedview
     id="namedview7"
     pagecolor="#ffffff"
     bordercolor="#666666"
     borderopacity="1.0"
     inkscape:pageshadow="2"
     inkscape:pageopacity="0.0"
     inkscape:pagecheckerboard="0"
     inkscape:document-units="px"
     showgrid="false"
     showborder="false"
     inkscape:snap-others="true"
     inkscape:snap-smooth-nodes="true"
     inkscape:zoom="1.4142136"
     inkscape:cx="364.51354"
     inkscape:cy="195.16147"
     inkscape:window-width="1898"
     inkscape:window-height="1035"
     inkscape:window-x="10"
     inkscape:window-y="33"
     inkscape:window-maximized="0"
     inkscape:current-layer="layer1"
     inkscape:snap-text-baseline="true" />
  <defs
     id="defs2">
    <linearGradient
       id="linearGradient32931"
       inkscape:swatch="solid">
      <stop
         style="stop-color:#808080;stop-opacity:1;"
         offset="0"
         id="stop32929" />
    </linearGradient>
    <linearGradient
       id="linearGradient8853"
       inkscape:swatch="solid">
      <stop
         style="stop-color:#000000;stop-opacity:1;"
         offset="0"
         id="stop8851" />
    </linearGradient>
    <linearGradient
       id="linearGradient8771"
       inkscape:swatch="solid">
      <stop
         style="stop-color:#ff5555;stop-opacity:1;"
         offset="0"
         id="stop8769" />
    </linearGradient>
    <filter
       inkscape:collect="always"
       style="color-interpolation-filters:sRGB"
       id="filter874"
       x="-0.0097730426"
       y="-0.0086026294"
       width="1.0195461"
       height="1.0172053">
      <feGaussianBlur
         inkscape:collect="always"
         stdDeviation="0.5893349"
         id="feGaussianBlur876" />
    </filter>
  </defs>
  <g
     inkscape:label="Layer 1"
     inkscape:groupmode="layer"
     id="layer1"
     transform="translate(-21.667668,-104.10564)">
    <g
       aria-label="T"
       id="text1772"
       style="font-size:246.131px;font-family:'Libertinus Serif';-inkscape-font-specification:'Libertinus Serif, Normal';letter-spacing:0px;stroke-width:6.15333" />
    <g
       id="g3829"
       transform="matrix(0.46881088,0,0,0.46881088,12.712352,82.488869)">
      <path
         id="path34098"
         style="color:#000000;font-size:246.131px;font-family:'Libertinus Serif';-inkscape-font-specification:'Libertinus Serif, Normal';letter-spacing:0px;fill:#ececec;fill-opacity:1;stroke-width:6.15334;-inkscape-stroke:none;filter:url(#filter874)"
         d="m 97.164615,49.971014 c -5.90714,0 -13.04468,4.676302 -13.04468,17.967378 0,17.229169 3.445454,25.844031 5.660636,47.503558 1.96905,19.19822 3.445999,41.34986 3.938259,46.51861 0.246131,1.47678 0.984475,3.1998 3.445785,3.1998 2.46131,0 3.199655,-2.21525 3.445785,-4.92269 0.49226,-3.44583 0.49206,-18.21357 3.69176,-44.79572 2.46131,-21.167267 5.90765,-31.505048 5.90765,-47.503558 0,-13.291076 -7.13804,-17.967378 -13.045195,-17.967378 z m -67.479084,2.973462 c -0.492262,0 -0.984436,0.491807 -0.984436,0.737939 -0.984524,11.075894 -3.445672,23.875007 -6.153113,35.689293 2.46131,0.984525 5.41491,1.230416 8.368481,1.230416 4.92262,-19.690477 16.244326,-26.08988 32.488973,-26.08988 h 12.060761 c 2.153949,0 3.931817,0.529447 5.397606,1.52704 0.227613,-4.501589 1.263219,-8.217619 2.892846,-11.149708 -18.875706,-0.121923 -45.227557,-1.246926 -54.071118,-1.9451 z m 133.649209,0 c -8.04245,0.709625 -33.52468,1.862177 -52.76216,1.951818 1.67834,3.021705 2.73025,6.871996 2.913,11.5595 1.52698,-1.272818 3.43034,-1.94355 5.7919,-1.94355 h 5.41465 c 18.45982,0 30.02815,6.39934 34.21239,25.351425 2.70743,0 6.1533,-0.245893 8.36848,-1.230416 -1.72291,-11.322028 -2.95368,-23.874944 -3.19981,-34.950838 0,-0.246132 -0.49232,-0.737939 -0.73845,-0.737939 z M 97.164615,188.29642 c -7.137799,0 -13.04468,5.9074 -13.04468,13.0452 0,7.13779 5.906881,13.04468 13.04468,13.04468 7.137795,0 13.045195,-5.90689 13.045195,-13.04468 0,-7.1378 -5.9074,-13.0452 -13.045195,-13.0452 z m 16.273945,14.60531 c -0.41689,4.30975 -2.54155,8.15281 -5.67924,10.84223 7.45935,0.0906 15.78197,0.25022 24.07088,0.416 1.47679,-1.47679 1.47679,-6.64521 0,-8.12199 -9.0296,-0.33861 -14.79191,-0.78667 -18.39164,-3.13624 z m -32.506545,0.37775 c -3.630594,2.02344 -9.245722,2.43873 -17.77256,2.75849 -1.476785,1.47678 -1.476785,6.6452 0,8.12199 7.917495,-0.16158 15.97963,-0.3163 23.416144,-0.40825 -3.049919,-2.61086 -5.141844,-6.31199 -5.643584,-10.47223 z" />
      <path
         style="color:#000000;font-size:246.131px;font-family:'Libertinus Serif';-inkscape-font-specification:'Libertinus Serif, Normal';letter-spacing:0px;fill:#000000;stroke-width:23.2567;-inkscape-stroke:none"
         d="m 292.86133,756.20703 c -13.72193,7.64765 -34.94446,9.21724 -67.17188,10.42578 -5.58155,5.58153 -5.58155,25.1157 0,30.69727 29.92439,-0.6107 60.39545,-1.19547 88.50196,-1.54297 -11.52725,-9.86783 -19.43374,-23.85636 -21.33008,-39.58008 z"
         id="path5383"
         transform="scale(0.26458333)" />
      <path
         style="color:#000000;font-size:246.131px;font-family:'Libertinus Serif';-inkscape-font-specification:'Libertinus Serif, Normal';letter-spacing:0px;fill:#000000;stroke-width:23.2567;-inkscape-stroke:none"
         d="m 415.7207,754.7793 c -1.57563,16.28883 -9.60585,30.81378 -21.46484,40.97851 28.19281,0.34232 59.64841,0.94571 90.97656,1.57227 5.58157,-5.58157 5.58157,-25.11574 0,-30.69727 -34.12763,-1.2798 -55.90641,-2.97326 -69.51172,-11.85351 z"
         id="path5381"
         transform="scale(0.26458333)" />
      <path
         style="color:#000000;font-size:246.131px;font-family:'Libertinus Serif';-inkscape-font-specification:'Libertinus Serif, Normal';letter-spacing:0px;fill:#000000;stroke-width:6.15334;-inkscape-stroke:none"
         d="m 159.88897,49.744767 c -8.04244,0.709626 -33.52468,1.862177 -52.76216,1.951818 1.67834,3.021706 2.73025,6.871994 2.913,11.5595 1.52698,-1.272818 3.43034,-1.94355 5.7919,-1.94355 h 5.41466 c 18.45982,0 30.02815,6.39934 34.21238,25.351425 2.70744,0 6.1533,-0.245893 8.36848,-1.230415 -1.72291,-11.322027 -2.95368,-23.874945 -3.19981,-34.950839 0,-0.246132 -0.49232,-0.737939 -0.73845,-0.737939 z"
         id="path5373" />
      <path
         style="color:#000000;font-size:246.131px;font-family:'Libertinus Serif';-inkscape-font-specification:'Libertinus Serif, Normal';letter-spacing:0px;fill:#000000;stroke-width:23.2567;-inkscape-stroke:none"
         d="m 99.173828,188.01172 c -1.860518,0 -3.720703,1.8588 -3.720703,2.78906 -3.721036,41.86165 -13.023012,90.23625 -23.255859,134.88867 9.302589,3.72104 20.465799,4.65039 31.628904,4.65039 18.60518,-74.4207 61.39588,-98.60742 122.79297,-98.60742 h 45.58398 c 8.14091,0 14.86041,2.00106 20.4004,5.77149 0.86027,-17.01388 4.77437,-31.05872 10.93359,-42.14063 -71.34125,-0.46081 -170.9388,-4.71279 -204.363282,-7.35156 z"
         id="path4290"
         transform="scale(0.26458333)" />
      <path
         style="color:#000000;-inkscape-font-specification:'Libertinus Serif, Normal';fill:#ff0000;stroke:#000000;stroke-width:1.32292;stroke-miterlimit:4;stroke-dasharray:none"
         d="m 93.71883,46.771255 c -5.90714,0 -13.04494,4.676489 -13.04494,17.967565 0,17.22917 3.44583,25.84375 5.66101,47.50328 1.96905,19.19822 3.44584,41.35001 3.9381,46.51876 0.24613,1.47678 0.98452,3.1997 3.44583,3.1997 2.46131,0 3.19971,-2.21518 3.44584,-4.92262 0.49226,-3.44583 0.49226,-18.21369 3.69196,-44.79584 2.46131,-21.16727 5.90715,-31.50477 5.90715,-47.50328 0,-13.291076 -7.1378,-17.967565 -13.04495,-17.967565 z M 80.67389,198.14182 c 0,7.13779 5.90714,13.04494 13.04494,13.04494 7.1378,0 13.04495,-5.90715 13.04495,-13.04494 0,-7.1378 -5.90715,-13.04495 -13.04495,-13.04495 -7.1378,0 -13.04494,5.90715 -13.04494,13.04495 z"
         id="path5145" />
    </g>
    <text
       xml:space="preserve"
       style="font-style:normal;font-variant:normal;font-weight:normal;font-stretch:normal;font-size:83.2805px;line-height:1.25;font-family:'Libertinus Serif';-inkscape-font-specification:'Libertinus Serif, Normal';font-variant-ligatures:normal;font-variant-caps:normal;font-variant-numeric:normal;font-variant-east-asian:normal;letter-spacing:0px;stroke-width:2.08201"
       x="77.105751"
       y="181.49553"
       id="text1916"><tspan
         sodipodi:role="line"
         id="tspan1914"
         style="font-style:normal;font-variant:normal;font-weight:normal;font-stretch:normal;font-size:83.2805px;font-family:'Libertinus Serif';-inkscape-font-specification:'Libertinus Serif, Normal';font-variant-ligatures:normal;font-variant-caps:normal;font-variant-numeric:normal;font-variant-east-asian:normal;stroke-width:2.08201"
         x="77.105751"
         y="181.49553">attl</tspan></text>
  </g>
</svg>
